# xmcd CD database file
#
# Track frame offsets:
#	150
#	2440
#	26667
#	53220
#	82072
#	111582
#	145932
#	168635
#	174245
#	201322
#	217987
#	243215
#	267450
#	298452
#	302450
#
# Disc length: 4343 seconds
#
# Revision: 0
# Processed by: cddbd v1.5.2PL0 Copyright (c) Steve Scherf et al.
# Submitted via: CDex 1.51
#
DISCID=dc10f50f
DTITLE=Marcus Miller - Silver Rain
DYEAR=2005
DGENRE=Jazz
TTITLE0=Intro Duction
TTITLE1=Bruce Lee
TTITLE2=La Villette
TTITLE3=Behind The Smile
TTITLE4=Frankenstein
TTITLE5=Moonlight Sonata
TTITLE6=Boogie On Reggae Woman
TTITLE7=Paris
TTITLE8=Silver Rain
TTITLE9=Make Up My Mind
TTITLE10=Girls And Boys
TTITLE11=Sophisticated Lady
TTITLE12=Power Of Soul
TTITLE13=Outro Duction
TTITLE14=The Lord's Prayer
EXTD=YEAR: 2005
EXTT0=
EXTT1=
EXTT2=
EXTT3=
EXTT4=
EXTT5=
EXTT6=
EXTT7=
EXTT8=
EXTT9=
EXTT10=
EXTT11=
EXTT12=
EXTT13=
EXTT14=
PLAYORDER=
